<?xml version="1.0" encoding="UTF-8"?>
<!-- Generator: Adobe Illustrator 16.0.4, SVG Export Plug-In . SVG Version: 6.00 Build 0)  -->
<!DOCTYPE svg PUBLIC "-//W3C//DTD SVG 1.1//EN" "http://www.w3.org/Graphics/SVG/1.1/DTD/svg11.dtd">
<svg version="1.1" id="Layer_1" xmlns="http://www.w3.org/2000/svg" xmlns:xlink="http://www.w3.org/1999/xlink" x="0px" y="0px" width="96px" height="96px" viewBox="0 0 96 96" enable-background="new 0 0 96 96" xml:space="preserve">
<g>
	<g>
		<g>
			<path fill="#FFB547" d="M77.203,18.797C76.688,18.281,75.938,18,75,18s-1.688,0.281-2.203,0.797L57.594,34H38.406L23.203,18.797     C22.688,18.281,21.938,18,21,18s-1.688,0.281-2.203,0.797C18.282,19.313,18,20.062,18,21v27c0,8.039,2.078,14.688,5.922,19.67     C29.039,74.314,37.289,78,48,78c18.75,0,30-11.25,30-30V21C78,20.062,77.719,19.312,77.203,18.797z"/>
			<g>
				<g>
					<g>
						<path fill="#873A34" d="M63,48c-1.875,0-3,1.125-3,3s1.125,3,3,3s3-1.125,3-3S64.875,48,63,48z"/>
					</g>
				</g>
			</g>
			<path fill="#FFFFFF" d="M52.5,57c-1.793,0-3.309,0.418-4.5,1.189C46.809,57.418,45.293,57,43.5,57c-4.688,0-7.5,2.812-7.5,7.5     s2.812,7.5,7.5,7.5h9c4.688,0,7.5-2.812,7.5-7.5S57.188,57,52.5,57z"/>
			<path fill="#FF9BB1" d="M52.5,54h-9c-0.938,0-1.5,0.562-1.5,1.5c0,0.568,0.207,1.002,0.586,1.254l4.496,3     C47.328,59.912,47.633,60,48,60s0.672-0.088,0.918-0.246l4.496-3C53.793,56.502,54,56.068,54,55.5C54,54.562,53.438,54,52.5,54z"/>
		</g>
	</g>
	<path fill="#E59E41" d="M38.406,34L23.203,18.797C22.688,18.281,21.938,18,21,18s-1.688,0.281-2.203,0.797   C18.282,19.313,18,20.062,18,21v27c0,8.039,2.078,14.688,5.922,19.67L57.594,34H38.406z"/>
	<g>
		<g>
			<g>
				<path fill="#873A34" d="M33,48c-1.875,0-3,1.125-3,3s1.125,3,3,3s3-1.125,3-3S34.875,48,33,48z"/>
			</g>
		</g>
	</g>
</g>
</svg>