<?xml version="1.0" encoding="UTF-8"?>
<!-- Generator: Adobe Illustrator 16.0.4, SVG Export Plug-In . SVG Version: 6.00 Build 0)  -->
<!DOCTYPE svg PUBLIC "-//W3C//DTD SVG 1.1//EN" "http://www.w3.org/Graphics/SVG/1.1/DTD/svg11.dtd">
<svg version="1.1" id="Layer_1" xmlns="http://www.w3.org/2000/svg" xmlns:xlink="http://www.w3.org/1999/xlink" x="0px" y="0px" width="96px" height="96px" viewBox="0 0 96 96" enable-background="new 0 0 96 96" xml:space="preserve">
<g>
	<g>
		<path fill="#C3C6C8" d="M18,48c0,18.75,11.25,30,30,30c10.711,0,18.961-3.686,24.078-10.33C75.922,62.688,78,56.039,78,48V34    c0-10-6.002-16-16-16c-2.5,0-4,1.5-4,4v12H38V22c0-2.5-1.5-4-4-4c-10,0-16,6.002-16,16V48z"/>
		<g>
			<g>
				<g>
					<g>
						<g>
							<g>
								<path fill="#40403E" d="M63,44c4.375,0,7,2.625,7,7s-2.625,7-7,7s-7-2.625-7-7S58.625,44,63,44z"/>
							</g>
						</g>
					</g>
				</g>
				<g>
					<g>
						<g>
							<path fill="#FFFFFF" d="M63,48c1.875,0,3,1.125,3,3s-1.125,3-3,3s-3-1.125-3-3S61.125,48,63,48z"/>
						</g>
					</g>
				</g>
				<path fill="#FFFFFF" d="M43.5,57c1.793,0,7.207,0,9,0c4.688,0,7.5,2.812,7.5,7.5S57.188,72,52.5,72h-9      c-4.688,0-7.5-2.812-7.5-7.5S38.812,57,43.5,57z"/>
				<path fill="#40403E" d="M44,54h8c1.25,0,2,0.75,2,2s-0.75,2-2,2h-2v2c0,1.25-0.75,2-2,2s-2-0.75-2-2v-2h-2c-1.25,0-2-0.75-2-2      S42.75,54,44,54z"/>
			</g>
		</g>
	</g>
	<path fill="#AAABAD" d="M18,34c0-9.998,6-16,16-16c2.5,0,4,1.5,4,4v12h20L24.088,67.912C20.134,62.9,18,56.162,18,48V34z"/>
	<g>
		<g>
			<g>
				<path fill="#40403E" d="M33,48c1.875,0,3,1.125,3,3s-1.125,3-3,3s-3-1.125-3-3S31.125,48,33,48z"/>
			</g>
		</g>
	</g>
</g>
</svg>