<?xml version="1.0" encoding="UTF-8"?>
<!-- Generator: Adobe Illustrator 16.0.4, SVG Export Plug-In . SVG Version: 6.00 Build 0)  -->
<!DOCTYPE svg PUBLIC "-//W3C//DTD SVG 1.1//EN" "http://www.w3.org/Graphics/SVG/1.1/DTD/svg11.dtd">
<svg version="1.1" id="Layer_1" xmlns="http://www.w3.org/2000/svg" xmlns:xlink="http://www.w3.org/1999/xlink" x="0px" y="0px" width="144px" height="144px" viewBox="-194.5 -2.5 144 144" enable-background="new -194.5 -2.5 144 144" xml:space="preserve">
<g>
	<g>
		<path fill="#FF99A7" d="M-101.248,84.5c-0.152,0.928-0.252,1.908-0.252,3c0,1.658,1.342,3,3,3s3-1.342,3-3    c0-1.168,0.127-2.152,0.367-3H-101.248z"/>
		<path fill="#FFFFFF" d="M-86.5,62.35V60.5c0-22.5-13.5-36-36-36s-36,13.5-36,36v1.85c-5.742,2.724-9,8.348-9,16.15    c0,11.25,6.75,18,18,18v15c0,1.875,1.125,3,3,3h3c1.875,0,3-1.125,3-3v-6h6v6c0,1.875,1.125,3,3,3h3c1.875,0,3-1.125,3-3v-6h6v6    c0,1.875,1.125,3,3,3h3c1.875,0,3-1.125,3-3v-6h6v6c0,1.875,1.125,3,3,3h3c1.875,0,3-1.125,3-3v-15c11.25,0,18-6.75,18-18    C-77.5,70.697-80.758,65.073-86.5,62.35z M-149.5,87.5c-5.625,0-9-3.375-9-9s3.375-9,9-9s9,3.375,9,9S-143.875,87.5-149.5,87.5z     M-116.5,96.5h-12c-0.938,0-1.5-0.562-1.5-1.5c0-0.366,0.086-0.676,0.246-0.917l6-9c0.25-0.375,0.684-0.583,1.254-0.583    c0.572,0,1.002,0.208,1.254,0.583l6,9C-115.084,94.324-115,94.634-115,95C-115,95.938-115.562,96.5-116.5,96.5z M-95.5,87.5    c-5.625,0-9-3.375-9-9s3.375-9,9-9s9,3.375,9,9S-89.875,87.5-95.5,87.5z"/>
		<path fill="#FF99A7" d="M-74.5,60.5c-1.658,0-3,1.342-3,3c0,6.167-3.354,7.362-9.785,9.105c-5.65,1.532-13.26,3.601-14.127,13.058    c1.5,1.172,3.48,1.837,5.912,1.837c0-6.167,3.355-7.362,9.785-9.105c6-1.626,14.215-3.853,14.215-14.895    C-71.5,61.842-72.842,60.5-74.5,60.5z"/>
		<path fill="#EFEFEA" d="M-158.5,60.5c0,0.647,0.051,1.263,0.074,1.896c2.531-1.195,5.49-1.896,8.926-1.896    c0-20.953,11.719-34.087,31.5-35.795c-1.459-0.129-2.953-0.205-4.5-0.205C-145,24.5-158.5,38-158.5,60.5z"/>
		<path fill="#E5899B" d="M-100.615,81.994c-0.387,1.085-0.67,2.364-0.797,3.742c1.5,1.172,3.48,1.764,5.912,1.764    c0-1.18,0.123-2.174,0.367-3.029c-0.123,0.006-0.238,0.029-0.367,0.029C-97.867,84.5-99.633,83.6-100.615,81.994z"/>
		<path fill="#EFEFEA" d="M-108.742,48.5l-6,6l4.242,4.242l10.242-10.242l-6.383-6.381l7.244-10.866    c-1.588-1.172-3.295-2.215-5.15-3.091l-9.814,14.722L-108.742,48.5z"/>
	</g>
</g>
</svg>