<?xml version="1.0" encoding="UTF-8"?>
<!-- Generator: Adobe Illustrator 16.0.4, SVG Export Plug-In . SVG Version: 6.00 Build 0)  -->
<!DOCTYPE svg PUBLIC "-//W3C//DTD SVG 1.1//EN" "http://www.w3.org/Graphics/SVG/1.1/DTD/svg11.dtd">
<svg version="1.1" id="Layer_1" xmlns="http://www.w3.org/2000/svg" xmlns:xlink="http://www.w3.org/1999/xlink" x="0px" y="0px" width="144px" height="144px" viewBox="0 0 144 144" enable-background="new 0 0 144 144" xml:space="preserve">
<g>
	<g>
		<g>
			<path fill="#55C6B4" d="M114,108H30c-3.75,0-6,2.25-6,6s2.25,6,6,6h84c3.75,0,6-2.25,6-6S117.75,108,114,108z"/>
			<path fill="#55C6B4" d="M96.551,90c-4.379-14.473-10.455-34.535-14.539-48H87c1.875,0,3-1.125,3-3     c0-0.938-0.281-1.688-0.797-2.203l-13.02-11.414C75.164,24.486,73.744,24,72,24c-2.812,0-4.781,1.266-5.59,3.48     C66.223,27.99,54.586,66.422,47.449,90H96.551z"/>
			<path fill="#49AA9A" d="M72,42v6h11.83c-0.639-2.109-1.248-4.119-1.818-6H72z"/>
			<g>
				<g>
					<g>
						<path fill="#FFBB4D" d="M69,54c-1.875,0-3,1.125-3,3s1.125,3,3,3s3-1.125,3-3S70.875,54,69,54z"/>
					</g>
				</g>
			</g>
			<g>
				<g>
					<g>
						<path fill="#FFBB4D" d="M75,66c-1.875,0-3,1.125-3,3s1.125,3,3,3s3-1.125,3-3S76.875,66,75,66z"/>
					</g>
				</g>
			</g>
			<g>
				<g>
					<g>
						<path fill="#FFBB4D" d="M63,78c-1.875,0-3,1.125-3,3s1.125,3,3,3s3-1.125,3-3S64.875,78,63,78z"/>
					</g>
				</g>
			</g>
			<path fill="#FFFFFF" d="M78,60.68c4.746,1.497,7.5,5.481,7.5,11.32s-2.754,9.823-7.5,11.32c1.352,0.425,2.84,0.68,4.5,0.68     c5.004,0,8.66-2.012,10.547-5.57c-1.725-5.703-3.545-11.709-5.305-17.524C86.215,60.316,84.463,60,82.5,60     C80.84,60,79.352,60.255,78,60.68z"/>
		</g>
		<path fill="#262625" d="M96.551,90H47.449C44.283,100.459,42,108,42,108h60C102,108,99.719,100.459,96.551,90z"/>
		<rect x="72" y="90" fill="#40403E" width="6" height="18"/>
	</g>
	<rect x="84" y="90" fill="#40403E" width="3" height="18"/>
</g>
</svg>