<?xml version="1.0" encoding="UTF-8"?>
<!-- Generator: Adobe Illustrator 16.0.4, SVG Export Plug-In . SVG Version: 6.00 Build 0)  -->
<!DOCTYPE svg PUBLIC "-//W3C//DTD SVG 1.1//EN" "http://www.w3.org/Graphics/SVG/1.1/DTD/svg11.dtd">
<svg version="1.1" id="Layer_1" xmlns="http://www.w3.org/2000/svg" xmlns:xlink="http://www.w3.org/1999/xlink" x="0px" y="0px" width="144px" height="144px" viewBox="0 0 144 144" enable-background="new 0 0 144 144" xml:space="preserve">
<g>
	<g>
		<g>
			<path fill="#D8D7D3" d="M49.334,96L45,120h63c-5.287-5.656-9-13.5-9-24H49.334z"/>
			<path fill="#FF99A7" d="M36,60c0,1.734,0.357,3.226,0.967,4.5C38.332,61.644,41.109,60,45,60v-9C39.375,51,36,54.375,36,60z"/>
			<path fill="#535F8C" d="M99,51c0-16.875-10.121-27-26.996-27s-27,10.125-27,27L45,60c5.625,0,9,3.375,9,9     c0,0.768-0.061,1.494-0.184,2.174L49.334,96H99C98.951,95.01,99,51,99,51z"/>
			<path fill="#434F70" d="M99,51c0-16.875-10.121-27-26.996-27c-2.109,0-4.111,0.158-6.004,0.469C79.248,26.637,87,36.234,87,51v45     h12C98.951,95.01,99,51,99,51z"/>
			<g>
				<g>
					<g>
						<path fill="#FF99A7" d="M66.41,37.5c-5.625,0-9,3.375-9,9s3.375,9,9,9s9-3.375,9-9S72.035,37.5,66.41,37.5z"/>
					</g>
				</g>
			</g>
			<g>
				<g>
					<g>
						<path fill="#40403E" d="M66.41,42c-2.812,0-4.5,1.688-4.5,4.5s1.688,4.5,4.5,4.5s4.5-1.688,4.5-4.5S69.223,42,66.41,42z"/>
					</g>
				</g>
			</g>
		</g>
		<path fill="#BEBEBA" d="M108,120c-5.287-5.654-9-13.5-9-24H87v24H108z"/>
	</g>
	<g>
		<g>
			<g>
				<path fill="#FFFFFF" d="M45,47c-2.5,0-4,1.5-4,4s1.5,4,4,4s4-1.5,4-4S47.5,47,45,47z"/>
			</g>
		</g>
	</g>
</g>
</svg>